# xmcd
#
# Track frame offsets: 
#        150
#        18810
#        34991
#        51942
#        69885
#        86492
#        103443
#        120306
#        140788
#        157649
#        173685
#        189643
#        207016
#        227282
#
# Disc length: 3214 seconds
#
# Revision: 0
# Processed by: cddbd v1.5.1PL0 Copyright (c) Steve Scherf et al.
# Submitted via: ExactAudioCopy v0.95a5
#
DISCID=ac0c8c0e
DTITLE=K-Maro - La Good Life
DYEAR=2004
DGENRE=R&B
TTITLE0=Famme Like U
TTITLE1=Crazy
TTITLE2=V.I.P.
TTITLE3=La Good Life
TTITLE4=My Lady
TTITLE5=Walad Bladi
TTITLE6=Au Top
TTITLE7=Sous Loeil De Lange
TTITLE8=Rolling Down
TTITLE9=Dense Dessus
TTITLE10=Qu'est Ce Que Ca Te Fout
TTITLE11=Que Dieu Me Pardonne
TTITLE12=Petits Princes
TTITLE13=Face A'La Mer (& Calogero)
EXTD=
EXTT0=
EXTT1=
EXTT2=
EXTT3=
EXTT4=
EXTT5=
EXTT6=
EXTT7=
EXTT8=
EXTT9=
EXTT10=
EXTT11=
EXTT12=
EXTT13=
PLAYORDER=
